<svg t="1686154777127" class="icon" viewBox="0 0 1024 1024" version="1.1" xmlns="http://www.w3.org/2000/svg" p-id="977" width="200" height="200"><path d="M931.2 35.04H97.76a80 80 0 0 0-80 80v557.76a80 80 0 0 0 80 80h315.52l-56.96 225.76h-72a16 16 0 1 0 0 32h460.16a16 16 0 0 0 0-32H672l-56.32-225.76H931.2a80 80 0 0 0 80-80V115.04a80 80 0 0 0-80-80z m-293.28 944H391.04L448 753.6h133.44zM931.2 720.8H97.76a48 48 0 0 1-48-45.6h929.12a48 48 0 0 1-47.68 45.6z m48-77.6H49.76v-528a48 48 0 0 1 48-48H931.2a48 48 0 0 1 48 48z" fill="#3FA9F5" p-id="978"></path><path d="M813.76 272v-0.8a21.12 21.12 0 0 0-2.56-4 4.32 4.32 0 0 1-1.28-1.12 24.48 24.48 0 0 0-3.36-2.24h-1.6a16 16 0 0 0-5.44-1.12h-121.6a16 16 0 0 0 0 32h81.76L532.64 515.36l-198.56-97.12a16 16 0 0 0-18.88 3.84l-134.4 150.88a16 16 0 0 0 12 26.56 16 16 0 0 0 11.84-5.28l126.4-141.92 197.76 96.8a16 16 0 0 0 18.08-2.88l236.16-230.56V400a16 16 0 0 0 32 0v-122.24a16 16 0 0 0-1.28-5.76zM436.48 276.8a12.48 12.48 0 1 0 0 24.96h32v15.04a12.48 12.48 0 0 0 12.48 12.48 12.32 12.32 0 0 0 12.32-12.48v-15.04h32a12.48 12.48 0 0 0 0-24.96h-32v-14.4h32a12.48 12.48 0 0 0 12.48-12.48 12.32 12.32 0 0 0-12.48-12.32h-25.6l19.84-20a12.48 12.48 0 1 0-17.6-17.6l-20.32 21.76-21.76-21.76a12.48 12.48 0 1 0-17.6 17.6l20 20h-25.76a12.32 12.32 0 0 0-12.48 12.32 12.48 12.48 0 0 0 12.48 12.48h32v14.4z" p-id="979"></path><path d="M482.56 384.96a126.4 126.4 0 1 0-126.4-126.4 126.4 126.4 0 0 0 126.4 126.4z m0-220.8a94.4 94.4 0 1 1-94.4 94.4 94.56 94.56 0 0 1 94.4-94.4z" p-id="980"></path></svg>